# xmcd
#
# Track frame offsets:
# 150
# 14566
# 31395
# 46694
# 63959
# 78697
# 93315
# 106062
# 116866
# 129753
# 147667
# 162580
# 180419
# 194449
# 209218
# 223355
# 236989
# 249719
# 264906
# 278733
# 296386
# 310943
# 325983
# 340181
#
# Disc length: 4717 seconds
#
#
# Revision: 0
# Processed by: cddbd v1.5.2PL0 Copyright (c) Steve Scherf et al.
# Submitted via: FreeRIP 2.945 
#
DISCID=74126b18
DTITLE=La Mera Mera !!! La Grupera
DYEAR=2007
DGENRE=Grupero
TTITLE0=Intro Mix La grupera
TTITLE1=Bobby Pulido-Desvelado (unplugged)
TTITLE2=Conjunto Oro-Quiero que me abrazes
TTITLE3=Reliquia-Inventame
TTITLE4=Autoridad-Te me vas (lo nuevo)
TTITLE5=El flaco Elizalde-Que levante la mano (marichi)
TTITLE6=Paco Villal-Perdoname
TTITLE7=Exito de la Grupera-Chiquitiboon
TTITLE8=El flaco Elizalde-Lobo domesticado
TTITLE9=Ponzoña musical-Tanto la queria
TTITLE10=Los primos de Durango-Cama y mesa
TTITLE11=Ligero-Abrazame y Perdoname
TTITLE12=Grupo Vida-Muevelo, bailalo
TTITLE13=Alegres de la Sierra-Y si volviera a nacer
TTITLE14=El Chapo-La noche perfecta
TTITLE15=Costumbre-Entregame
TTITLE16=El Duelo-Te compro
TTITLE17=DGO-El soy yo
TTITLE18=Grupo mojado-EL platanito
TTITLE19=La firma-Ojala
TTITLE20=Los Paizas-EL autobus
TTITLE21=Alacranes Musical-Por tu amor
TTITLE22=Pesado-Humillate
TTITLE23=Sergio Vega-Necesito dueña
EXTD=
EXTT0=
EXTT1=
EXTT2=
EXTT3=
EXTT4=
EXTT5=
EXTT6=
EXTT7=
EXTT8=
EXTT9=
EXTT10=
EXTT11=
EXTT12=
EXTT13=
EXTT14=
EXTT15=
EXTT16=
EXTT17=
EXTT18=
EXTT19=
EXTT20=
EXTT21=
EXTT22=
EXTT23=
PLAYORDER=
